<svg width="579" height="576" viewBox="0 0 579 576" fill="none" xmlns="http://www.w3.org/2000/svg">
<path d="M100.611 330.981H440.055V383.638H100.611V330.981Z" fill="#7CE3E1"/>
<path d="M126.178 220.725C153.461 239.624 137.91 281.088 156.585 341.924C163.128 363.223 180.235 418.942 222.349 446.271C281.126 484.409 333.679 431.616 452.733 449.769C502.029 457.288 578.472 479.371 578.175 502.399C577.625 544.802 317.217 564.767 226.257 571.744C122.361 579.719 98.8759 574.675 77.2057 560.331C-23.1261 493.894 -21.1818 269.745 57.1003 223.398C76.4853 211.92 107.068 207.484 126.178 220.725Z" fill="#4761FF"/>
<path d="M457.105 97.9779H457.994C484.76 97.9779 506.537 76.2004 506.537 49.4317V48.5462C506.537 21.7774 484.76 0 457.994 0H457.105C430.337 0 408.562 21.7774 408.562 48.5462V49.4317C408.562 76.2004 430.337 97.9779 457.105 97.9779ZM457.994 2.00202C483.651 2.00202 504.524 22.8775 504.524 48.5352V49.4207C504.524 75.0784 483.651 95.9538 457.994 95.9538H457.105C431.448 95.9538 410.575 75.0784 410.575 49.4207V48.5352C410.575 22.8775 431.448 2.00202 457.105 2.00202H457.994Z" fill="black"/>
<path d="M450.774 78.4443L421.594 45.5485L432.322 37.5432L450.505 58.0391L482.57 20.0503L493.504 27.8191L450.774 78.4443Z" fill="#7CE3E1"/>
<path d="M400.392 454.601C400.392 454.601 435.614 483.919 438.175 494.226C440.735 504.533 365.156 477.894 365.156 477.894L369.479 453.3L400.392 454.601Z" fill="black"/>
<path d="M434.92 493.805C436.925 493.805 437.552 493.445 437.945 493.214C438.061 493.149 438.164 493.062 438.247 492.957C438.329 492.853 438.39 492.733 438.426 492.604C438.462 492.476 438.472 492.341 438.455 492.209C438.439 492.077 438.396 491.949 438.33 491.833C438.263 491.718 438.175 491.616 438.069 491.535C437.963 491.454 437.842 491.395 437.713 491.361C437.584 491.327 437.45 491.319 437.318 491.337C437.186 491.355 437.059 491.4 436.944 491.468C432.577 493.979 390.867 482.076 365.6 473.986C365.345 473.905 365.067 473.928 364.829 474.051C364.591 474.174 364.412 474.387 364.331 474.642C364.249 474.897 364.273 475.174 364.396 475.412C364.519 475.65 364.731 475.83 364.987 475.911C365.152 475.963 381.646 481.235 398.707 485.993C421.802 492.422 430.995 493.805 434.92 493.805Z" fill="white"/>
<path d="M401.585 466.759C401.819 466.759 402.044 466.677 402.223 466.528L408.587 461.303C408.785 461.131 408.908 460.888 408.93 460.627C408.952 460.365 408.871 460.106 408.704 459.903C408.538 459.701 408.298 459.571 408.038 459.542C407.777 459.514 407.515 459.588 407.308 459.749L400.945 464.974C400.784 465.106 400.668 465.284 400.613 465.484C400.557 465.685 400.565 465.897 400.636 466.093C400.706 466.288 400.835 466.457 401.005 466.576C401.175 466.696 401.378 466.759 401.585 466.759V466.759Z" fill="white"/>
<path d="M408.534 473.189C408.78 473.189 409.018 473.099 409.202 472.936L415.852 467.051C416.045 466.872 416.16 466.625 416.173 466.362C416.186 466.1 416.095 465.842 415.921 465.646C415.747 465.449 415.503 465.328 415.24 465.309C414.978 465.29 414.719 465.374 414.518 465.543L407.869 471.429C407.716 471.564 407.608 471.742 407.559 471.941C407.51 472.139 407.522 472.347 407.594 472.538C407.667 472.729 407.795 472.893 407.963 473.01C408.131 473.126 408.33 473.188 408.534 473.189V473.189Z" fill="white"/>
<path fill-rule="evenodd" clip-rule="evenodd" d="M407.755 275.792C407.755 275.792 402.255 273.366 400.33 272.896C381.63 268.345 323.761 264.781 323.761 264.781L323.662 261.376L243.84 258.695L236.173 272.896C236.173 272.896 227.794 292.971 233.451 310.552C239.107 328.133 253.526 331.524 262.554 331.972C269.036 332.297 326.434 332.156 358.255 332.052L351.847 460.725H420.727L431.13 313.5C431.843 305.531 429.949 297.546 425.734 290.746C421.519 283.946 415.209 278.698 407.755 275.792Z" fill="#FFB64F"/>
<path fill-rule="evenodd" clip-rule="evenodd" d="M280.807 295.892L272.612 460.728H341.492L358.275 294.979L280.807 295.892Z" fill="#FFB64F"/>
<path d="M480.827 96.3968C477.771 93.9795 473.646 98.8388 473.314 99.2403C473.619 98.8691 476.993 94.6148 473.116 93.2453C471.039 92.511 468.413 92.9703 465.449 97.7003C461.354 104.218 457.911 109.949 457.911 109.949C458.739 105.601 460.017 101.352 461.725 97.2686C463.314 93.4983 461.106 91.7218 460.036 91.5238C457.385 91.0343 455.521 91.675 452.182 98.5446C448.844 105.414 447.375 109.6 447.375 109.6C447.375 109.6 429.869 110.246 424 112.669C421.657 113.637 420.109 117.965 419.091 122.811C417.991 128.019 413.297 164.248 410.635 173.472C419.916 176.552 429.258 179.445 438.718 181.934C440.484 182.398 444.639 182.759 444.639 182.759C444.639 182.759 446.394 148.155 447.254 136.641C447.408 134.837 448.035 133.105 449.074 131.622C450.113 130.139 451.526 128.958 453.17 128.198C460.595 124.695 472.39 119.747 473.193 118.779C475.701 115.754 479.243 109.261 481.316 102.279C482.496 98.3631 481.877 97.2246 480.827 96.3968Z" fill="#FFAE99"/>
<path d="M456.168 115.383C456.383 115.383 456.592 115.314 456.765 115.187C456.938 115.06 457.066 114.881 457.131 114.676L459.881 105.791C459.96 105.536 459.934 105.259 459.81 105.023C459.685 104.786 459.472 104.609 459.216 104.53C458.961 104.451 458.685 104.476 458.448 104.601C458.212 104.726 458.035 104.939 457.956 105.194L455.206 114.077C455.126 114.332 455.152 114.608 455.276 114.844C455.4 115.08 455.613 115.257 455.868 115.336C455.965 115.368 456.066 115.384 456.168 115.383V115.383Z" fill="black"/>
<path fill-rule="evenodd" clip-rule="evenodd" d="M417.431 121.689L405.386 160.073C400.527 150.85 380.674 123.944 368.555 114.566C353.174 102.664 321.945 101.454 321.945 101.454C321.945 101.454 295.025 100.819 288.359 101.344C277.18 102.229 236.213 104.149 220.708 130.027C209.433 148.829 189.138 187.725 197.256 213.179C204.725 236.601 243.778 229.767 243.778 229.767C243.778 229.767 239.813 266.499 240.088 266.486C240.088 266.486 315.477 271.161 314.545 270.905C314.517 270.905 314.473 270.8 314.413 270.63L365.822 268.518L366.803 214.986C367.186 241.224 398.979 245.959 409.596 241.224C444.607 225.623 447.198 178.606 462.045 135.942L417.431 121.689Z" fill="black"/>
<path d="M318.402 271.68C318.66 271.68 318.908 271.581 319.095 271.403C319.283 271.226 319.395 270.984 319.409 270.726C324.403 175.716 315.633 108.178 315.545 107.507C315.527 107.376 315.483 107.249 315.416 107.135C315.349 107.021 315.261 106.921 315.155 106.841C315.05 106.761 314.93 106.703 314.802 106.669C314.674 106.636 314.54 106.628 314.409 106.646C314.278 106.664 314.152 106.708 314.038 106.775C313.923 106.841 313.823 106.93 313.744 107.036C313.664 107.141 313.605 107.261 313.572 107.389C313.538 107.517 313.53 107.651 313.548 107.782C313.636 108.453 322.381 175.82 317.398 270.633C317.391 270.765 317.41 270.897 317.454 271.021C317.498 271.146 317.566 271.261 317.654 271.359C317.743 271.457 317.85 271.537 317.969 271.593C318.089 271.65 318.218 271.682 318.35 271.689L318.402 271.68Z" fill="white"/>
<path fill-rule="evenodd" clip-rule="evenodd" d="M329.484 164.759C329.484 166.803 330.686 168.458 332.171 168.458C333.656 168.458 334.857 166.808 334.857 164.759C334.857 162.711 333.653 161.061 332.171 161.061C330.688 161.061 329.484 162.716 329.484 164.759Z" fill="#FCF8F7"/>
<path d="M328.696 253.36C327.212 253.36 326.009 251.704 326.009 249.661C326.009 247.618 327.212 245.962 328.696 245.962C330.18 245.962 331.383 247.618 331.383 249.661C331.383 251.704 330.18 253.36 328.696 253.36Z" fill="#FCF8F7"/>
<path fill-rule="evenodd" clip-rule="evenodd" d="M328.695 204.948C328.695 206.992 329.899 208.647 331.382 208.647C332.864 208.647 334.068 206.997 334.068 204.948C334.068 202.9 332.864 201.25 331.382 201.25C329.899 201.25 328.695 202.908 328.695 204.948Z" fill="#FCF8F7"/>
<path d="M366.884 225.912C367.147 225.912 367.399 225.809 367.587 225.626C367.775 225.442 367.884 225.192 367.891 224.93C367.891 224.462 369.051 177.83 365.743 146.788C365.729 146.656 365.689 146.529 365.626 146.413C365.562 146.297 365.477 146.195 365.374 146.112C365.271 146.029 365.153 145.967 365.026 145.929C364.899 145.892 364.766 145.88 364.635 145.894C364.503 145.908 364.376 145.948 364.26 146.011C364.144 146.075 364.041 146.16 363.958 146.263C363.875 146.366 363.813 146.484 363.776 146.611C363.739 146.738 363.727 146.871 363.741 147.002C367.041 177.91 365.891 224.413 365.878 224.878C365.874 225.01 365.897 225.141 365.945 225.265C365.992 225.388 366.064 225.501 366.155 225.597C366.246 225.692 366.355 225.769 366.476 225.823C366.597 225.876 366.727 225.906 366.859 225.909L366.884 225.912Z" fill="white"/>
<path d="M396.117 184.417C396.319 184.417 396.516 184.356 396.682 184.243C396.849 184.129 396.978 183.969 397.052 183.781L406.32 160.445C406.418 160.196 406.414 159.919 406.308 159.674C406.202 159.429 406.003 159.236 405.755 159.137C405.506 159.039 405.229 159.043 404.984 159.149C404.739 159.255 404.545 159.454 404.447 159.702L395.188 183.036C395.088 183.283 395.089 183.559 395.192 183.804C395.296 184.049 395.492 184.244 395.738 184.345C395.859 184.393 395.987 184.417 396.117 184.417V184.417Z" fill="white"/>
<path d="M391.452 167.081C391.621 167.081 391.788 167.039 391.936 166.957L401.239 161.858C401.355 161.795 401.457 161.709 401.54 161.606C401.623 161.503 401.684 161.384 401.721 161.257C401.758 161.131 401.77 160.998 401.756 160.866C401.741 160.735 401.701 160.607 401.638 160.491C401.574 160.376 401.488 160.273 401.385 160.191C401.282 160.108 401.164 160.046 401.037 160.009C400.91 159.972 400.777 159.96 400.646 159.975C400.514 159.989 400.387 160.029 400.271 160.093L390.97 165.191C390.774 165.299 390.62 165.468 390.531 165.673C390.442 165.878 390.423 166.107 390.479 166.324C390.534 166.54 390.66 166.732 390.837 166.869C391.014 167.006 391.231 167.081 391.454 167.081H391.452Z" fill="white"/>
<path fill-rule="evenodd" clip-rule="evenodd" d="M283.813 201.021L285.639 179.948C287.949 172.902 293.297 166.077 296.576 163.948C303.577 159.394 326.966 161.039 327.134 164.773C327.302 168.508 305.389 172.096 305.389 172.096C305.389 172.096 323.716 179.247 323.853 182.767C323.991 186.287 317.77 186.438 317.77 186.438C317.77 186.438 320.663 190.64 318.666 193.434C316.67 196.228 315.144 196.148 315.144 196.148C315.144 196.148 319.464 200.039 314.382 201.054C309.3 202.069 298.792 198.516 298.792 198.516C298.792 198.516 292.951 213.174 281.849 213.174L283.813 201.021Z" fill="#FFAE99"/>
<path d="M251.476 182.819C251.711 182.818 251.938 182.734 252.117 182.584C252.297 182.433 252.419 182.225 252.461 181.994L259.278 147.66C259.316 147.404 259.254 147.143 259.105 146.931C258.955 146.72 258.731 146.573 258.477 146.523C258.223 146.472 257.959 146.521 257.74 146.66C257.521 146.798 257.364 147.015 257.301 147.267L250.486 181.601C250.435 181.863 250.489 182.135 250.637 182.357C250.786 182.579 251.016 182.733 251.278 182.786C251.343 182.802 251.41 182.813 251.476 182.819V182.819Z" fill="white"/>
<path d="M243.769 230.774H243.816L279.731 229.124C279.969 229.113 280.195 229.019 280.37 228.857C280.544 228.695 280.656 228.477 280.685 228.241L286.639 180.061C286.657 179.911 286.642 179.76 286.594 179.617C286.547 179.474 286.468 179.344 286.364 179.236C286.262 179.128 286.138 179.044 286 178.991C285.862 178.937 285.714 178.914 285.567 178.925L234.606 182.384C234.339 182.402 234.091 182.525 233.915 182.726C233.739 182.928 233.65 183.19 233.668 183.457C233.686 183.723 233.809 183.972 234.01 184.148C234.211 184.324 234.474 184.412 234.741 184.395L284.491 181.048L278.79 227.177L243.725 228.777C243.467 228.795 243.226 228.912 243.051 229.103C242.877 229.294 242.783 229.545 242.788 229.803C242.794 230.062 242.899 230.308 243.082 230.492C243.264 230.675 243.51 230.781 243.769 230.788V230.774Z" fill="white"/>
<path d="M354.612 333.072C354.867 333.071 355.112 332.974 355.298 332.8C355.484 332.626 355.598 332.388 355.616 332.134L356.927 313.572C358.421 296.879 348.545 280.948 332.911 274.854L332.843 274.829L314.844 269.266C314.589 269.187 314.312 269.213 314.076 269.338C313.84 269.463 313.663 269.676 313.584 269.931C313.506 270.187 313.531 270.463 313.656 270.699C313.781 270.935 313.995 271.112 314.25 271.191L332.213 276.749C339.439 279.604 345.552 284.714 349.643 291.32C353.734 297.927 355.584 305.676 354.92 313.418L353.608 332C353.59 332.266 353.678 332.528 353.853 332.729C354.027 332.931 354.274 333.055 354.54 333.075L354.612 333.072Z" fill="black"/>
<path d="M358.244 333.058C358.443 333.058 358.638 332.999 358.803 332.888C358.968 332.777 359.097 332.62 359.174 332.437L369.099 308.649C369.201 308.403 369.201 308.125 369.1 307.879C368.998 307.632 368.802 307.436 368.556 307.333C368.309 307.231 368.032 307.23 367.785 307.332C367.538 307.434 367.342 307.63 367.24 307.876L357.315 331.675C357.251 331.828 357.226 331.995 357.242 332.16C357.258 332.325 357.314 332.483 357.406 332.621C357.498 332.759 357.623 332.872 357.769 332.95C357.915 333.029 358.079 333.069 358.244 333.069V333.058Z" fill="black"/>
<path d="M278.365 333.058C278.631 333.058 278.888 332.952 279.076 332.764C279.265 332.575 279.371 332.319 279.371 332.052V308.866C279.371 308.599 279.265 308.343 279.076 308.155C278.888 307.966 278.631 307.86 278.365 307.86C278.098 307.86 277.842 307.966 277.653 308.155C277.464 308.343 277.358 308.599 277.358 308.866V332.052C277.358 332.319 277.464 332.575 277.653 332.764C277.842 332.952 278.098 333.058 278.365 333.058V333.058Z" fill="black"/>
<path d="M310.295 23.502C309.524 25.5385 308.987 27.6558 308.694 29.8133C308.694 29.8133 310.641 26.2465 310.295 23.502Z" fill="black"/>
<path d="M323.371 42.2458C322.546 40.56 321.787 39.1245 321.185 38.03C320.806 37.3359 320.214 36.7814 319.497 36.4479C318.78 36.1143 317.975 36.0192 317.2 36.1765C310.957 37.4525 296.872 41.8498 293.363 44.4485C289.438 47.3553 293.154 60.1539 297.438 67.8705C297.855 68.6219 298.182 69.4193 298.414 70.2465L294.262 74.8968L286.721 96.2425L314.557 107.647L317.827 104.825L322.227 84.4256C337.679 76.5468 328.959 53.6419 323.371 42.2458Z" fill="#FFAE99"/>
<path d="M319.054 51.0514C319.193 51.0518 319.33 51.0235 319.458 50.9681C319.585 50.9127 319.699 50.8315 319.794 50.7296C319.821 50.6994 321.504 48.9449 323.385 49.5994C323.511 49.6463 323.645 49.6677 323.778 49.6622C323.912 49.6568 324.044 49.6247 324.165 49.5677C324.287 49.5108 324.395 49.4302 324.485 49.3306C324.575 49.2311 324.644 49.1146 324.688 48.988C324.732 48.8615 324.751 48.7273 324.742 48.5936C324.734 48.4598 324.699 48.329 324.639 48.2089C324.579 48.0889 324.496 47.9819 324.395 47.8944C324.293 47.8068 324.176 47.7404 324.048 47.6991C320.905 46.5991 318.416 49.2529 318.314 49.3656C318.225 49.4628 318.155 49.5767 318.109 49.7009C318.064 49.825 318.043 49.957 318.049 50.0891C318.055 50.2212 318.086 50.3509 318.142 50.4707C318.198 50.5906 318.277 50.6982 318.375 50.7874C318.559 50.9585 318.802 51.053 319.054 51.0514V51.0514Z" fill="black"/>
<path d="M305.813 57.4453C306.043 57.4447 306.267 57.3653 306.446 57.2202C306.625 57.0751 306.749 56.8731 306.797 56.6477C306.874 56.3067 307.655 53.3477 311.747 54.005C311.878 54.0257 312.011 54.0206 312.14 53.9898C312.268 53.959 312.39 53.9032 312.497 53.8256C312.604 53.748 312.694 53.65 312.763 53.5374C312.833 53.4247 312.879 53.2995 312.9 53.169C312.92 53.0384 312.915 52.905 312.884 52.7765C312.854 52.6479 312.798 52.5267 312.72 52.4197C312.643 52.3127 312.545 52.222 312.432 52.1529C312.319 52.0837 312.194 52.0375 312.064 52.0167C307.191 51.2467 305.205 54.4367 304.834 56.2325C304.78 56.4943 304.833 56.7667 304.979 56.9899C305.126 57.2131 305.356 57.369 305.618 57.4232C305.682 57.4368 305.747 57.4442 305.813 57.4453Z" fill="black"/>
<path d="M309.388 59.6618C309.196 59.1531 308.97 58.6471 308.838 58.1191C308.632 57.7011 308.929 57.1456 309.355 56.9696C309.422 56.9461 309.491 56.9313 309.562 56.9256C309.694 56.8717 309.84 56.8648 309.977 56.9058C310.113 56.9468 310.232 57.0334 310.312 57.1511C310.312 57.1676 310.332 57.1896 310.343 57.2088C310.404 57.2748 310.458 57.3477 310.502 57.4261C310.741 57.9182 310.955 58.4221 311.143 58.9358C311.366 59.4858 311.586 59.9011 311.344 60.4979C311.257 60.6855 311.104 60.8339 310.913 60.9139C310.723 60.9938 310.51 60.9994 310.315 60.9296C309.716 60.6738 309.589 60.2146 309.388 59.6618Z" fill="black"/>
<path d="M322.9 54.8628C322.691 54.3582 322.507 53.8432 322.35 53.32C322.144 52.902 322.444 52.3465 322.867 52.1705C322.934 52.1471 323.003 52.1323 323.074 52.1265C323.205 52.0719 323.352 52.0642 323.488 52.1048C323.625 52.1453 323.744 52.2317 323.824 52.3493L323.855 52.4098C323.918 52.4743 323.971 52.5475 324.014 52.627C324.255 53.1184 324.468 53.6224 324.655 54.1368C324.88 54.6868 325.1 55.102 324.856 55.6988C324.769 55.8859 324.615 56.0338 324.425 56.1132C324.234 56.1926 324.021 56.1978 323.827 56.1278C323.236 55.8748 323.109 55.4155 322.9 54.8628Z" fill="black"/>
<path d="M318.389 73.4175C320.248 73.4175 321.81 72.0948 322.514 71.146C322.667 70.9326 322.731 70.6676 322.692 70.4076C322.652 70.1477 322.513 69.9135 322.303 69.755C322.093 69.5966 321.83 69.5265 321.569 69.5598C321.308 69.5932 321.071 69.7272 320.908 69.9333C320.726 70.1698 319.093 72.1965 317.236 71.0498C316.01 70.2935 316.354 68.517 316.367 68.4428C316.415 68.1847 316.36 67.9183 316.213 67.7004C316.067 67.4825 315.842 67.3302 315.585 67.2761C315.328 67.2219 315.061 67.2702 314.839 67.4105C314.617 67.5509 314.459 67.7723 314.398 68.0275C314.371 68.1595 313.738 71.256 316.178 72.763C316.837 73.187 317.604 73.414 318.389 73.4175Z" fill="black"/>
<path d="M325.479 67.6695C325.679 67.6695 325.874 67.6098 326.04 67.4982C326.207 67.3865 326.336 67.2278 326.411 67.0425C326.59 66.608 328.097 62.7112 326.359 60.3819C325.473 59.1967 323.994 59.0069 322.561 58.8007C320.938 58.5779 319.404 58.3689 318.384 56.9609C316.58 54.4859 318.934 51.1858 318.958 51.1418C319.116 50.9263 319.182 50.6569 319.141 50.3928C319.101 50.1288 318.957 49.8917 318.741 49.7338C318.526 49.5759 318.256 49.5101 317.992 49.5508C317.728 49.5916 317.491 49.7356 317.333 49.9511C317.201 50.1353 314.085 54.4584 316.753 58.1434C318.279 60.2472 320.501 60.5524 322.291 60.7944C323.391 60.9457 324.365 61.0694 324.744 61.5864C325.647 62.7909 324.885 65.4365 324.547 66.2862C324.487 66.4385 324.465 66.6031 324.483 66.7657C324.501 66.9283 324.558 67.0841 324.65 67.2196C324.742 67.355 324.865 67.466 325.01 67.543C325.154 67.6199 325.315 67.6605 325.479 67.6612V67.6695Z" fill="black"/>
<path d="M312.341 84.0544C312.07 84.0002 311.79 84.0209 311.53 84.1142C311.269 84.2075 311.04 84.3699 310.865 84.5839C310.69 84.798 310.577 85.0556 310.538 85.329C310.498 85.6025 310.534 85.8816 310.642 86.1362L319.054 99.0613L322.42 84.1754L312.341 84.0544Z" fill="#EA8165"/>
<path d="M330.926 22.7069C330.063 14.1818 318.125 12.5318 313.827 17.3883C312.201 19.2226 310.397 22.4456 310.296 23.5016C310.1 21.9589 309.196 20.6774 306.789 20.4326C300.129 19.7561 298.993 29.0319 298.993 29.0319C298.993 29.0319 281.693 27.1482 273.536 44.2011C267.151 57.5524 274.911 69.6773 290.765 84.7612C290.765 84.7612 297.027 81.1862 298.773 74.3331C299.287 72.3146 298.641 70.0348 297.439 67.8705C295.826 64.9078 294.497 61.7993 293.468 58.5865C296.009 57.5634 297.868 54.3982 297.868 50.6471C297.868 47.6221 296.667 44.9931 294.874 43.5438C299.854 40.9285 311.649 37.315 317.209 36.1765C317.984 36.0192 318.789 36.1143 319.507 36.4479C320.224 36.7814 320.815 37.3359 321.194 38.03C321.796 39.13 322.555 40.56 323.38 42.2458C325.393 39.3885 331.663 29.8762 330.926 22.7069Z" fill="#1A1A1A"/>
<path d="M300.845 72.7931C299.112 74.9932 295.345 75.1609 292.438 73.1754C289.531 71.1899 288.569 67.7963 290.301 65.5991C292.034 63.4018 295.801 63.2286 298.708 65.2141C301.615 67.1996 302.577 70.5931 300.845 72.7931Z" fill="#FFAE99"/>
<path d="M299.963 71.6299C300.083 71.6303 300.202 71.6089 300.315 71.5666C300.564 71.4727 300.767 71.2838 300.878 71.041C300.988 70.7983 300.999 70.5216 300.906 70.2714C299.165 65.5963 294.152 65.3213 291.748 65.8218C291.619 65.8489 291.496 65.9012 291.387 65.9758C291.278 66.0504 291.184 66.1457 291.112 66.2564C291.039 66.3671 290.989 66.491 290.965 66.621C290.94 66.751 290.942 66.8845 290.969 67.014C290.996 67.1434 291.048 67.2663 291.123 67.3756C291.197 67.4848 291.293 67.5783 291.403 67.6507C291.514 67.7231 291.638 67.773 291.768 67.7975C291.898 67.822 292.031 67.8207 292.161 67.7936C292.392 67.7469 297.452 66.7678 299.019 70.9754C299.092 71.1674 299.22 71.3329 299.389 71.4498C299.557 71.5668 299.758 71.6296 299.963 71.6299V71.6299Z" fill="black"/>
<path fill-rule="evenodd" clip-rule="evenodd" d="M330.924 103.362L321.64 87.6268L313.838 104.784L290.221 86.3013L276.913 102.419L301.73 128.124L314.547 107.639L328.952 126.54L330.924 103.362Z" fill="black"/>
<path d="M301.729 129.13C301.772 129.133 301.814 129.133 301.856 129.13C302.004 129.112 302.147 129.061 302.273 128.981C302.399 128.9 302.506 128.792 302.585 128.665L314.63 109.415L328.152 127.147C328.275 127.309 328.444 127.43 328.637 127.494C328.83 127.558 329.038 127.562 329.233 127.505C329.428 127.449 329.602 127.334 329.731 127.177C329.86 127.02 329.938 126.827 329.956 126.625L331.927 104.075C331.942 103.941 331.93 103.806 331.892 103.678C331.854 103.549 331.791 103.43 331.706 103.326C331.621 103.222 331.516 103.136 331.397 103.074C331.279 103.011 331.149 102.973 331.015 102.961C330.882 102.949 330.747 102.964 330.619 103.005C330.491 103.046 330.373 103.112 330.271 103.2C330.17 103.287 330.086 103.394 330.027 103.514C329.967 103.634 329.931 103.765 329.923 103.899L328.176 123.858L315.348 107.026C315.249 106.896 315.121 106.793 314.973 106.724C314.826 106.656 314.665 106.624 314.502 106.631C314.34 106.639 314.182 106.686 314.042 106.768C313.902 106.85 313.784 106.965 313.698 107.103L301.534 126.54L279.061 105.07C278.967 104.972 278.854 104.895 278.729 104.842C278.604 104.789 278.469 104.761 278.334 104.762C278.198 104.762 278.064 104.79 277.939 104.843C277.814 104.897 277.702 104.975 277.608 105.073C277.514 105.171 277.441 105.288 277.393 105.415C277.346 105.542 277.324 105.677 277.33 105.813C277.336 105.948 277.37 106.082 277.428 106.204C277.487 106.326 277.57 106.436 277.672 106.525L301.047 128.85C301.231 129.026 301.475 129.126 301.729 129.13V129.13Z" fill="black"/>
<path d="M308.013 172.998C308.25 172.999 308.48 172.915 308.662 172.763C308.844 172.61 308.966 172.398 309.007 172.163C309.047 171.929 309.004 171.689 308.884 171.483C308.764 171.278 308.575 171.122 308.351 171.043L301.564 168.626C301.312 168.536 301.035 168.55 300.794 168.665C300.553 168.779 300.367 168.985 300.277 169.236C300.187 169.488 300.201 169.765 300.316 170.006C300.43 170.248 300.636 170.434 300.887 170.523L307.675 172.941C307.783 172.978 307.898 172.998 308.013 172.998V172.998Z" fill="black"/>
<path d="M319.68 188.289C319.91 188.287 320.133 188.207 320.31 188.061C320.488 187.916 320.611 187.714 320.658 187.489C320.705 187.264 320.674 187.03 320.57 186.825C320.466 186.62 320.294 186.458 320.085 186.364L301.827 178.35C301.583 178.243 301.305 178.237 301.056 178.334C300.808 178.432 300.608 178.624 300.5 178.868C300.393 179.113 300.388 179.39 300.485 179.639C300.582 179.888 300.774 180.088 301.019 180.195L319.287 188.198C319.411 188.254 319.545 188.285 319.68 188.289V188.289Z" fill="black"/>
<path d="M316.292 197.699C316.524 197.703 316.75 197.627 316.933 197.484C317.115 197.34 317.242 197.138 317.292 196.912C317.343 196.685 317.313 196.449 317.209 196.241C317.105 196.034 316.933 195.869 316.721 195.774L300.328 188.11C300.208 188.051 300.078 188.017 299.944 188.009C299.811 188.002 299.677 188.021 299.551 188.065C299.425 188.11 299.309 188.179 299.21 188.269C299.111 188.358 299.031 188.467 298.975 188.588C298.918 188.709 298.886 188.84 298.881 188.974C298.875 189.107 298.897 189.24 298.943 189.366C298.99 189.491 299.061 189.605 299.152 189.703C299.244 189.8 299.354 189.879 299.476 189.933L315.866 197.598C315.999 197.663 316.144 197.698 316.292 197.699V197.699Z" fill="black"/>
<path d="M464.979 118.581C465.173 118.582 465.363 118.526 465.526 118.42C465.69 118.315 465.818 118.164 465.898 117.987C466.505 116.64 475.583 98.1485 475.674 97.9642C475.792 97.7246 475.81 97.448 475.724 97.1953C475.637 96.9426 475.454 96.7345 475.215 96.6167C474.975 96.4989 474.699 96.4811 474.446 96.5672C474.193 96.6534 473.985 96.8364 473.867 97.076C473.493 97.8377 464.682 115.776 464.063 117.151C463.994 117.304 463.964 117.472 463.976 117.64C463.989 117.808 464.043 117.969 464.134 118.111C464.225 118.252 464.35 118.368 464.498 118.448C464.646 118.529 464.811 118.57 464.979 118.57V118.581Z" fill="black"/>
<path d="M472.978 121.119C473.168 121.12 473.355 121.066 473.516 120.964C473.677 120.862 473.806 120.717 473.888 120.545L482.991 101.349C483.105 101.108 483.119 100.831 483.029 100.579C482.94 100.328 482.754 100.122 482.512 100.007C482.271 99.8929 481.994 99.8789 481.742 99.9687C481.49 100.058 481.285 100.244 481.17 100.486L472.07 119.681C472.014 119.801 471.981 119.93 471.974 120.062C471.967 120.194 471.987 120.327 472.031 120.451C472.076 120.576 472.144 120.691 472.233 120.789C472.322 120.887 472.429 120.966 472.549 121.023C472.683 121.087 472.829 121.12 472.978 121.119V121.119Z" fill="black"/>
<path d="M301.729 129.13H301.836C301.988 129.114 302.135 129.064 302.264 128.983C302.394 128.902 302.503 128.792 302.584 128.663L314.629 109.412L328.151 127.147C328.274 127.309 328.443 127.43 328.636 127.494C328.829 127.558 329.037 127.562 329.232 127.505C329.428 127.448 329.601 127.334 329.73 127.177C329.859 127.02 329.938 126.827 329.955 126.625L332.021 102.339C332.036 102.205 332.025 102.07 331.987 101.94C331.949 101.811 331.886 101.69 331.8 101.586C331.715 101.481 331.61 101.395 331.491 101.332C331.371 101.269 331.241 101.231 331.106 101.219C330.972 101.208 330.836 101.224 330.708 101.266C330.58 101.307 330.462 101.375 330.36 101.463C330.258 101.552 330.175 101.66 330.116 101.781C330.057 101.902 330.023 102.034 330.016 102.169L328.17 123.847L315.347 107.02C315.249 106.891 315.12 106.787 314.973 106.719C314.826 106.65 314.664 106.618 314.502 106.626C314.34 106.633 314.182 106.68 314.041 106.762C313.901 106.844 313.783 106.959 313.697 107.097L301.561 126.49L277.636 101.712C277.45 101.523 277.197 101.414 276.931 101.41C276.666 101.406 276.409 101.507 276.218 101.692C276.027 101.876 275.916 102.129 275.91 102.394C275.905 102.66 276.004 102.917 276.187 103.109L301.003 128.814C301.096 128.913 301.209 128.992 301.334 129.046C301.458 129.101 301.593 129.129 301.729 129.13Z" fill="white"/>
</svg>
